<?xml version="1.0" standalone="no"?>
<!DOCTYPE svg PUBLIC "-//W3C//DTD SVG 20010904//EN"
 "http://www.w3.org/TR/2001/REC-SVG-20010904/DTD/svg10.dtd">
<svg version="1.0" xmlns="http://www.w3.org/2000/svg"
 width="68.000000pt" height="68.000000pt" viewBox="0 0 68.000000 68.000000"
 preserveAspectRatio="xMidYMid meet">

<g transform="translate(0.000000,68.000000) scale(0.100000,-0.100000)"
fill="#000000" stroke="none">
<path d="M115 633 c-26 -37 -35 -58 -35 -90 l0 -43 -40 0 c-39 0 -40 -1 -40
-35 0 -34 1 -35 40 -35 l41 0 -3 -127 -3 -128 -38 -3 c-36 -3 -38 -5 -35 -35
3 -29 6 -32 41 -35 l37 -3 0 -50 0 -50 73 3 72 3 3 48 c3 39 6 47 23 47 16 0
19 -7 19 -50 l0 -50 70 0 70 0 0 51 c0 47 2 50 23 47 19 -3 22 -9 23 -48 l0
-45 72 -3 72 -3 0 50 0 50 38 3 c34 3 37 6 40 35 3 30 1 32 -35 35 l-38 3 -3
128 -3 127 41 0 c39 0 40 1 40 35 0 34 -1 35 -40 35 l-40 0 0 40 c0 29 -9 55
-32 90 -18 27 -36 50 -39 50 -16 0 -64 -90 -69 -130 -4 -37 -9 -46 -27 -48
-21 -3 -23 1 -23 39 0 30 -9 56 -31 91 -17 26 -34 48 -38 48 -3 0 -21 -23 -38
-50 -24 -35 -33 -61 -33 -90 0 -33 -3 -40 -20 -40 -16 0 -20 7 -20 35 0 24
-12 53 -36 90 -20 30 -38 55 -40 55 -2 0 -19 -21 -39 -47z m70 -31 l25 -38 -2
-270 -3 -269 -52 -3 -53 -3 0 276 c0 269 1 276 23 310 12 19 25 35 29 35 4 0
19 -17 33 -38z m184 4 c20 -32 21 -47 21 -310 l0 -276 -50 0 -50 0 0 276 c0
263 1 278 21 310 11 19 24 34 29 34 5 0 18 -15 29 -34z m189 1 c21 -32 22 -39
22 -310 l0 -277 -50 0 -50 0 0 276 c0 263 1 278 21 310 11 19 24 34 27 34 4 0
17 -15 30 -33z m-478 -142 c0 -10 -10 -15 -30 -15 -20 0 -30 5 -30 15 0 10 10
15 30 15 20 0 30 -5 30 -15z m188 -2 c2 -8 -5 -13 -17 -13 -12 0 -21 6 -21 16
0 18 31 15 38 -3z m183 2 c0 -5 -9 -11 -21 -13 -20 -3 -27 8 -13 22 10 9 34 3
34 -9z m209 0 c0 -10 -10 -15 -30 -15 -20 0 -30 5 -30 15 0 10 10 15 30 15 20
0 30 -5 30 -15z m-395 -165 c0 -111 -2 -125 -17 -128 -16 -3 -18 8 -18 128 0
120 2 131 18 128 15 -3 17 -17 17 -128z m190 0 c0 -118 -1 -125 -20 -125 -19
0 -20 8 -23 114 -3 127 0 144 25 139 16 -3 18 -17 18 -128z m-377 -162 c-6
-17 -50 -17 -55 0 -3 8 6 12 27 12 21 0 30 -4 28 -12z m190 0 c-7 -19 -38 -22
-38 -4 0 10 9 16 21 16 12 0 19 -5 17 -12z m185 -3 c-4 -15 -36 -12 -41 3 -3
9 3 13 19 10 13 -1 23 -7 22 -13z m205 3 c-3 -7 -15 -13 -28 -13 -13 0 -25 6
-27 13 -3 8 6 12 27 12 21 0 30 -4 28 -12z"/>
</g>
</svg>
