<?xml version="1.0" standalone="no"?>
<!DOCTYPE svg PUBLIC "-//W3C//DTD SVG 20010904//EN"
 "http://www.w3.org/TR/2001/REC-SVG-20010904/DTD/svg10.dtd">
<svg version="1.0" xmlns="http://www.w3.org/2000/svg"
 width="120.000000pt" height="122.000000pt" viewBox="0 0 120.000000 122.000000"
 preserveAspectRatio="xMidYMid meet">

<g transform="translate(0.000000,122.000000) scale(0.100000,-0.100000)"
fill="#000000" stroke="none">
<path d="M268 1210 c-130 -3 -238 -7 -241 -10 -23 -26 -27 -67 -27 -270 0
-217 5 -253 34 -272 6 -4 122 -8 258 -8 244 0 247 0 262 22 13 19 16 61 16
258 0 248 -4 272 -47 281 -10 2 -125 2 -255 -1z m64 -152 l3 -73 73 -3 72 -3
0 -44 0 -45 -75 0 -75 0 0 -75 0 -75 -45 0 -45 0 0 75 0 75 -75 0 -75 0 0 45
0 45 75 0 75 0 0 75 0 75 45 0 44 0 3 -72z"/>
<path d="M650 1183 c-20 -26 -21 -35 -18 -266 3 -223 4 -240 22 -253 16 -11
69 -14 263 -14 230 0 244 1 263 20 19 19 20 33 20 260 0 227 -1 241 -20 260
-19 19 -33 20 -264 20 l-245 0 -21 -27z m475 -258 l0 -45 -197 0 -198 0 0 45
0 45 198 0 197 0 0 -45z"/>
<path d="M42 574 c-16 -6 -32 -22 -35 -35 -4 -13 -7 -124 -7 -245 0 -209 1
-223 21 -248 l20 -26 245 0 c231 0 245 1 264 20 19 19 20 33 20 259 0 213 -2
241 -17 260 -17 19 -30 21 -250 24 -167 3 -240 0 -261 -9z m436 -186 l3 -48
-195 0 -196 0 0 43 c0 24 3 47 7 51 4 3 90 5 192 4 l186 -3 3 -47z m2 -178 l0
-50 -195 0 -195 0 0 50 0 50 195 0 195 0 0 -50z"/>
<path d="M664 572 c-30 -19 -34 -55 -34 -281 0 -217 1 -232 20 -251 11 -11 30
-22 43 -25 12 -3 123 -5 246 -3 220 3 223 3 242 27 18 21 19 42 19 262 0 226
-1 240 -20 259 -19 19 -33 20 -262 20 -134 0 -248 -4 -254 -8z m309 -164 l53
52 29 -30 29 -30 -52 -53 -52 -52 52 -53 53 -52 -33 -32 -32 -33 -52 53 -53
52 -52 -52 -53 -52 -30 29 -30 29 52 53 52 53 -52 53 -52 53 32 32 32 32 53
-52 53 -52 53 52z"/>
</g>
</svg>
